<svg xmlns="http://www.w3.org/2000/svg" width="4744" height="1000" viewBox="0 0 4744 1000">
  <defs>
    <style>
      .cls-1 {
        fill: #626262;
      }

      .cls-2, .cls-5, .cls-6 {
        fill: none;
        stroke-miterlimit: 10;
      }

      .cls-2 {
        stroke: #626262;
      }

      .cls-2, .cls-6 {
        stroke-width: 25px;
      }

      .cls-3 {
        fill: #e6e6e6;
      }

      .cls-4 {
        fill: #ccc;
      }

      .cls-5 {
        stroke: #fff;
        stroke-width: 40px;
      }

      .cls-6 {
        stroke: #232a37;
      }

      .cls-7 {
        fill: #242a36;
      }
    </style>
  </defs>
  <g id="Layer_1" data-name="Layer 1">
    <g>
      <g>
        <path class="cls-1" d="M1003.85,239v182.7H961.57V272.89H925V239Z"/>
        <path class="cls-1" d="M1073.54,413.57q-17.76-11.22-27.8-32.5t-10-50.76q0-29.49,10-50.77t27.8-32.49q17.74-11.22,40.45-11.22t40.46,11.22q17.74,11.22,27.8,32.49t10,50.77q0,29.49-10,50.76t-27.8,32.5q-17.76,11.22-40.46,11.22T1073.54,413.57Zm66.68-38.89q9.52-14.35,9.53-44.37t-9.53-44.37q-9.53-14.35-26.23-14.36-16.44,0-26,14.36t-9.52,44.37q0,30,9.52,44.37T1114,389Q1130.7,389,1140.22,374.68Z"/>
        <path class="cls-1" d="M1250.75,413.57Q1233,402.35,1223,381.07t-10-50.76q0-29.49,10-50.77t27.79-32.49q17.74-11.22,40.46-11.22t40.45,11.22q17.74,11.22,27.8,32.49t10,50.77q0,29.49-10,50.76t-27.8,32.5q-17.75,11.22-40.45,11.22T1250.75,413.57Zm66.69-38.89q9.52-14.35,9.53-44.37t-9.53-44.37q-9.54-14.35-26.23-14.36-16.44,0-26,14.36t-9.53,44.37q0,30,9.53,44.37t26,14.35Q1307.9,389,1317.44,374.68Z"/>
        <path class="cls-1" d="M1399.65,323.91Q1387,310.21,1387,287.24t12.66-36.67q12.66-13.69,32.76-13.7t32.62,13.7q12.53,13.71,12.53,36.67T1465,323.91q-12.52,13.71-32.62,13.71T1399.65,323.91Zm46.72-15q5.09-7.31,5.09-21.67t-5.09-21.66a16.12,16.12,0,0,0-14-7.31q-8.62,0-13.84,7.44t-5.22,21.53q0,14.1,5.22,21.54t13.84,7.44A16.12,16.12,0,0,0,1446.37,308.91Zm94.87-70h31.06l-124.76,182.7h-31.06ZM1533,417.61A41.48,41.48,0,0,1,1517,400q-5.74-11.49-5.74-26.63t5.74-26.62a41.62,41.62,0,0,1,16-17.62,44.88,44.88,0,0,1,23.36-6.13q20.1,0,32.76,13.7t12.65,36.67q0,23-12.65,36.67t-32.76,13.71A44.79,44.79,0,0,1,1533,417.61Zm37.32-22.7q5.1-7.44,5.09-21.54t-5.09-21.53a16,16,0,0,0-14-7.44,16.22,16.22,0,0,0-13.83,7.31q-5.23,7.31-5.22,21.66t5.22,21.67a16.22,16.22,0,0,0,13.83,7.31A16,16,0,0,0,1570.34,394.91Z"/>
        <path class="cls-1" d="M1825.6,247.05q17.87,8.1,27.53,23t9.66,35.23q0,20.1-9.66,35.11t-27.53,23q-17.88,8-42.15,8h-36.8v50.37h-42.29V239h79.09Q1807.72,239,1825.6,247.05Zm-15.53,81.56q9.92-8.22,9.92-23.36,0-15.39-9.92-23.62t-29-8.22h-34.45v63.42h34.45Q1800.15,336.83,1810.07,328.61Z"/>
        <path class="cls-1" d="M2034,281.24V421.66h-38.63V405a54.09,54.09,0,0,1-19.32,14,60.72,60.72,0,0,1-24.27,4.83q-27.66,0-43.85-15.92t-16.18-47.25V281.24h40.72v73.34q0,33.93,28.45,33.93,14.61,0,23.49-9.52t8.87-28.32V281.24Z"/>
        <path class="cls-1" d="M2130.44,284.37q12.41-5.22,28.58-5.22v37.59q-6.78-.53-9.13-.52-17.49,0-27.41,9.78t-9.91,29.37v66.29h-40.72V281.24h38.89v18.53A45.4,45.4,0,0,1,2130.44,284.37Z"/>
        <path class="cls-1" d="M2209.53,414.48a69.29,69.29,0,0,1-27.93-25.71q-10-16.44-10-37.32t10-37.32a69.43,69.43,0,0,1,27.93-25.71q17.88-9.27,40.33-9.27,22.17,0,38.75,9.27a55,55,0,0,1,24.15,26.49l-31.59,17q-11-19.32-31.58-19.32-15.91,0-26.36,10.44t-10.44,28.45q0,18,10.44,28.45t26.36,10.44q20.88,0,31.58-19.31l31.59,17.22a56,56,0,0,1-24.15,26.1q-16.58,9.4-38.75,9.4Q2227.4,423.75,2209.53,414.48Z"/>
        <path class="cls-1" d="M2462.7,294.81q16.05,15.66,16.05,46.46v80.39H2438V347.54q0-16.71-7.3-24.93t-21.15-8.22q-15.39,0-24.53,9.52t-9.13,28.32v69.43H2335.2V228h40.72v67.86a54.12,54.12,0,0,1,19.57-12.4,70.87,70.87,0,0,1,25.06-4.31Q2446.64,279.15,2462.7,294.81Z"/>
        <path class="cls-1" d="M2622.3,294.68q17.47,15.54,17.49,46.85v80.13h-38.11V404.17q-11.49,19.57-42.8,19.58-16.2,0-28.06-5.48t-18.14-15.14a39.38,39.38,0,0,1-6.26-21.93q0-19.57,14.74-30.79t45.55-11.23h32.36q0-13.31-8.09-20.49t-24.27-7.17a70.83,70.83,0,0,0-22.06,3.52,58.47,58.47,0,0,0-18.4,9.53l-14.62-28.45a88.41,88.41,0,0,1,27.54-12.53,123.24,123.24,0,0,1,33-4.44Q2604.82,279.15,2622.3,294.68Zm-34.71,96.83a26.4,26.4,0,0,0,11.48-14.22V362.93h-27.93q-25,0-25,16.45a14.62,14.62,0,0,0,6.13,12.39q6.14,4.58,16.83,4.57A35.4,35.4,0,0,0,2587.59,391.51Z"/>
        <path class="cls-1" d="M2689.63,419.44q-16.7-4.31-26.62-10.83l13.57-29.23a85.55,85.55,0,0,0,22.71,9.78,94.92,94.92,0,0,0,26.1,3.79q25.84,0,25.84-12.79,0-6-7.05-8.61t-21.66-4.44a209.43,209.43,0,0,1-28.45-6,44.14,44.14,0,0,1-19.44-12q-8.22-8.61-8.22-24.53A38.42,38.42,0,0,1,2674.1,301q7.7-10.31,22.45-16.05t34.84-5.75a136.49,136.49,0,0,1,29.63,3.27q14.74,3.25,24.4,9l-13.57,29A81,81,0,0,0,2731.39,310q-13,0-19.57,3.65t-6.53,9.4q0,6.53,7.05,9.14t22.45,5a240.19,240.19,0,0,1,28.18,6.13A42.44,42.44,0,0,1,2782,355.1q8.08,8.63,8.09,24a37.09,37.09,0,0,1-7.83,23.23q-7.83,10.17-22.84,15.79t-35.62,5.61A136.54,136.54,0,0,1,2689.63,419.44Z"/>
        <path class="cls-1" d="M2951.94,362.93H2845.71a33,33,0,0,0,13.57,20.62q10.69,7.57,26.62,7.57a53.84,53.84,0,0,0,19.45-3.26,47,47,0,0,0,15.79-10.31L2942.8,401q-19.83,22.71-57.94,22.71-23.76,0-42-9.27a67.82,67.82,0,0,1-28.19-25.71q-9.92-16.44-9.92-37.32a71.81,71.81,0,0,1,9.79-37.19,68.52,68.52,0,0,1,26.88-25.84q17.1-9.27,38.24-9.27,20.61,0,37.32,8.88a64.74,64.74,0,0,1,26.23,25.44q9.53,16.59,9.53,38.5C2952.72,352.49,2952.46,356.15,2951.94,362.93Zm-95.27-45.15q-9.39,7.83-11.48,21.4h69.16q-2.08-13.31-11.48-21.27t-23-8Q2866.07,310,2856.67,317.78Z"/>
        <path class="cls-1" d="M3177.83,247.05q17.88,8.1,27.53,23t9.66,35.23q0,20.1-9.66,35.11t-27.53,23q-17.88,8-42.15,8h-36.8v50.37h-42.29V239h79.09Q3160,239,3177.83,247.05Zm-15.53,81.56q9.91-8.22,9.92-23.36,0-15.39-9.92-23.62t-29-8.22h-34.45v63.42h34.45Q3152.38,336.83,3162.3,328.61Z"/>
        <path class="cls-1" d="M3300.76,284.37q12.39-5.22,28.58-5.22v37.59c-4.53-.35-7.57-.52-9.14-.52q-17.49,0-27.4,9.78t-9.92,29.37v66.29h-40.71V281.24h38.88v18.53A45.37,45.37,0,0,1,3300.76,284.37Z"/>
        <path class="cls-1" d="M3379.32,414.48a68.78,68.78,0,0,1-27.53-25.71q-9.93-16.44-9.92-37.32t9.92-37.32a68.92,68.92,0,0,1,27.53-25.71q17.63-9.27,39.81-9.27t39.67,9.27a69.16,69.16,0,0,1,27.4,25.71q9.91,16.44,9.92,37.32t-9.92,37.32a69,69,0,0,1-27.4,25.71q-17.49,9.27-39.67,9.27T3379.32,414.48Zm65.51-34.71q10.05-10.57,10.05-28.32t-10.05-28.32q-10-10.58-25.7-10.57t-25.84,10.57q-10.18,10.58-10.18,28.32t10.18,28.32q10.17,10.58,25.84,10.57T3444.83,379.77Z"/>
        <path class="cls-1" d="M3613.83,414.87a41.86,41.86,0,0,1-14.74,6.66,75.1,75.1,0,0,1-18.4,2.22q-25.07,0-38.76-12.79t-13.71-37.59V315.69h-21.66V284.37h21.66V250.18h40.72v34.19h35v31.32h-35v57.16q0,8.88,4.57,13.7c3,3.23,7.35,4.83,12.92,4.83a26.13,26.13,0,0,0,16.44-5.22Z"/>
        <path class="cls-1" d="M3769.13,362.93H3662.9a33,33,0,0,0,13.57,20.62q10.7,7.57,26.62,7.57a53.84,53.84,0,0,0,19.45-3.26,47,47,0,0,0,15.79-10.31L3760,401q-19.83,22.71-57.94,22.71-23.76,0-42-9.27a67.82,67.82,0,0,1-28.19-25.71q-9.91-16.44-9.92-37.32a71.81,71.81,0,0,1,9.79-37.19,68.66,68.66,0,0,1,26.88-25.84q17.1-9.27,38.24-9.27,20.61,0,37.32,8.88a64.74,64.74,0,0,1,26.23,25.44q9.52,16.59,9.53,38.5C3769.91,352.49,3769.65,356.15,3769.13,362.93Zm-95.27-45.15q-9.39,7.83-11.48,21.4h69.16q-2.09-13.31-11.48-21.27t-23-8Q3683.26,310,3673.86,317.78Z"/>
        <path class="cls-1" d="M3824.59,414.48a69.29,69.29,0,0,1-27.93-25.71q-10-16.44-10-37.32t10-37.32a69.43,69.43,0,0,1,27.93-25.71q17.88-9.27,40.32-9.27,22.18,0,38.76,9.27a54.94,54.94,0,0,1,24.14,26.49l-31.58,17q-11-19.32-31.58-19.32-15.92,0-26.36,10.44t-10.44,28.45q0,18,10.44,28.45t26.36,10.44q20.88,0,31.58-19.31l31.58,17.22a56,56,0,0,1-24.14,26.1q-16.58,9.4-38.76,9.4Q3842.47,423.75,3824.59,414.48Z"/>
        <path class="cls-1" d="M4044,414.87a41.91,41.91,0,0,1-14.75,6.66,75,75,0,0,1-18.4,2.22q-25.07,0-38.76-12.79t-13.7-37.59V315.69h-21.67V284.37h21.67V250.18h40.71v34.19h35v31.32h-35v57.16q0,8.88,4.57,13.7c3,3.23,7.35,4.83,12.92,4.83a26.09,26.09,0,0,0,16.44-5.22Z"/>
        <path class="cls-1" d="M4069,255.14a22.09,22.09,0,0,1,0-32.36q7-6.53,18.27-6.53t18.27,6.27a20.06,20.06,0,0,1,7.05,15.66,22.16,22.16,0,0,1-7.05,16.83q-7.05,6.66-18.27,6.66T4069,255.14Zm-2.09,26.1h40.72V421.66h-40.72Z"/>
        <path class="cls-1" d="M4172.5,414.48A68.75,68.75,0,0,1,4145,388.77q-9.91-16.44-9.92-37.32t9.92-37.32a68.88,68.88,0,0,1,27.54-25.71q17.61-9.27,39.8-9.27t39.67,9.27a69.19,69.19,0,0,1,27.41,25.71q9.91,16.44,9.91,37.32t-9.91,37.32A69,69,0,0,1,4252,414.48q-17.49,9.27-39.67,9.27T4172.5,414.48ZM4238,379.77q10-10.57,10.05-28.32T4238,323.13q-10-10.58-25.71-10.57t-25.84,10.57q-10.19,10.58-10.18,28.32t10.18,28.32q10.19,10.58,25.84,10.57T4238,379.77Z"/>
        <path class="cls-1" d="M4443.94,294.81Q4460,310.47,4460,341.27v80.39h-40.72V347.54q0-16.71-7.31-24.93t-21.14-8.22q-15.4,0-24.53,9.52t-9.14,28.32v69.43h-40.71V281.24h38.89v16.44a54,54,0,0,1,20.09-13.7,70,70,0,0,1,26.36-4.83Q4427.88,279.15,4443.94,294.81Z"/>
      </g>
      <g>
        <path class="cls-1" d="M966.65,779a65.11,65.11,0,0,1-25.3-24.35,70,70,0,0,1,0-69.35A65.11,65.11,0,0,1,966.65,661q16.11-8.82,36.2-8.82a73.72,73.72,0,0,1,36,8.82,64.61,64.61,0,0,1,25.2,24.25,71,71,0,0,1,0,69.55,64.54,64.54,0,0,1-25.2,24.25,73.72,73.72,0,0,1-36,8.82Q982.75,787.86,966.65,779Zm62.44-14.68a48.61,48.61,0,0,0,18.38-18.29,53.8,53.8,0,0,0,0-52.11,48.68,48.68,0,0,0-18.38-18.29,52.13,52.13,0,0,0-26.24-6.63,53.18,53.18,0,0,0-26.44,6.63A48.28,48.28,0,0,0,957.84,694a53.8,53.8,0,0,0,0,52.11,48.21,48.21,0,0,0,18.57,18.29,53.18,53.18,0,0,0,26.44,6.63A52.13,52.13,0,0,0,1029.09,764.36Z"/>
        <path class="cls-1" d="M1131,689.5q9.29-4.54,22.55-4.54v17.62a36.94,36.94,0,0,0-4.17-.19q-14.79,0-23.21,8.81t-8.44,25.11v50h-18.19V685.91h17.43v16.86A31.12,31.12,0,0,1,1131,689.5Z"/>
        <path class="cls-1" d="M1176.14,663.17a11.19,11.19,0,0,1-3.5-8.34,11.49,11.49,0,0,1,3.5-8.44,12,12,0,0,1,8.82-3.5,12.34,12.34,0,0,1,8.81,3.32,10.89,10.89,0,0,1,3.5,8.24,11.74,11.74,0,0,1-3.5,8.62,12,12,0,0,1-8.81,3.51A12.16,12.16,0,0,1,1176.14,663.17Zm-.28,22.74h18.19V786.34h-18.19Z"/>
        <path class="cls-1" d="M1324.8,685.91V772.7q0,26.32-13.07,38.94t-39,12.6a93.75,93.75,0,0,1-27.1-3.88q-12.88-3.9-20.84-11.09l8.72-14a51.49,51.49,0,0,0,17.33,9.57,66.08,66.08,0,0,0,21.32,3.5q17.63,0,26.06-8.34t8.43-25.39v-8a40.25,40.25,0,0,1-15.82,11.66,52.72,52.72,0,0,1-20.37,3.88,54.87,54.87,0,0,1-26.06-6.16,45.73,45.73,0,0,1-18.28-17.24,51.52,51.52,0,0,1,0-50.6A45.18,45.18,0,0,1,1244.36,691a55.64,55.64,0,0,1,26.06-6.06,53.22,53.22,0,0,1,21.13,4.17,39.27,39.27,0,0,1,16,12.31V685.91Zm-34.58,76.17a30.8,30.8,0,0,0,12.32-11.65,32.6,32.6,0,0,0,4.45-17q0-14.6-9.66-23.59t-24.83-9q-15.35,0-25,9t-9.67,23.59a32.52,32.52,0,0,0,4.46,17,30.71,30.71,0,0,0,12.31,11.65,37.66,37.66,0,0,0,17.91,4.17A37.23,37.23,0,0,0,1290.22,762.08Z"/>
        <path class="cls-1" d="M1359.76,663.17a11.23,11.23,0,0,1-3.5-8.34,11.53,11.53,0,0,1,3.5-8.44,12,12,0,0,1,8.82-3.5,12.34,12.34,0,0,1,8.81,3.32,10.89,10.89,0,0,1,3.5,8.24,11.74,11.74,0,0,1-3.5,8.62,12,12,0,0,1-8.81,3.51A12.16,12.16,0,0,1,1359.76,663.17Zm-.28,22.74h18.19V786.34h-18.19Z"/>
        <path class="cls-1" d="M1496.39,696q11.28,11.09,11.28,32.5v57.8h-18.19V730.63q0-14.6-7-22t-20.08-7.39q-14.79,0-23.31,8.63t-8.53,24.73v51.73h-18.19V685.91h17.43v15.15a35.49,35.49,0,0,1,14.88-11.93A52,52,0,0,1,1466,685Q1485.12,685,1496.39,696Z"/>
        <path class="cls-1" d="M1609.9,695.19Q1621,705.42,1621,725.7v60.64h-17.24V773.08a28.82,28.82,0,0,1-13,10.7q-8.43,3.71-20,3.7-16.86,0-27-8.15a26.13,26.13,0,0,1-10.14-21.41q0-13.27,9.66-21.32t30.7-8.06h28.81v-3.6q0-11.75-6.82-18t-20.09-6.25a53.33,53.33,0,0,0-17.43,2.93,44.88,44.88,0,0,0-14.41,7.87l-7.58-13.65a55.16,55.16,0,0,1,18.57-9.57A77.81,77.81,0,0,1,1578,685Q1598.82,685,1609.9,695.19Zm-18.09,73.62a26.57,26.57,0,0,0,11-13.17v-14h-28q-23.12,0-23.12,15.54a14.07,14.07,0,0,0,5.88,11.94q5.87,4.35,16.29,4.35A33.79,33.79,0,0,0,1591.81,768.81Z"/>
        <path class="cls-1" d="M1654.72,645.73h18.19V786.34h-18.19Z"/>
        <path class="cls-1" d="M1853.5,666q14.79,12.32,14.78,33.92t-14.78,33.92q-14.77,12.31-40.55,12.32h-32.78v40.17h-19V653.69H1813Q1838.72,653.69,1853.5,666Zm-13.64,56q9.47-7.66,9.47-22.07t-9.47-22.08q-9.48-7.68-27.48-7.67h-32.21v59.5h32.21Q1830.38,729.68,1839.86,722Z"/>
        <path class="cls-1" d="M1923.24,689.5q9.27-4.54,22.55-4.54v17.62a37.07,37.07,0,0,0-4.17-.19q-14.79,0-23.22,8.81T1910,736.31v50h-18.19V685.91h17.43v16.86A31.07,31.07,0,0,1,1923.24,689.5Z"/>
        <path class="cls-1" d="M1983.31,780.84a48,48,0,0,1-18.67-18.28,55.28,55.28,0,0,1,0-52.87,47.34,47.34,0,0,1,18.67-18.19,58.43,58.43,0,0,1,53.72,0,47.61,47.61,0,0,1,18.57,18.19,55.28,55.28,0,0,1,0,52.87A48.32,48.32,0,0,1,2037,780.84a57.65,57.65,0,0,1-53.72,0Zm44.24-13.73a31.47,31.47,0,0,0,12-12.51,41.32,41.32,0,0,0,0-37,30.85,30.85,0,0,0-12-12.42,36.72,36.72,0,0,0-34.67,0,31.39,31.39,0,0,0-12.13,12.42,40.5,40.5,0,0,0,0,37,32,32,0,0,0,12.13,12.51,36,36,0,0,0,34.67,0Z"/>
        <path class="cls-1" d="M2182.28,645.73V786.34h-17.43V770.42a39.56,39.56,0,0,1-15.35,12.7,47.56,47.56,0,0,1-20.47,4.36,52.72,52.72,0,0,1-26.15-6.45,46.1,46.1,0,0,1-18.1-18.09q-6.54-11.66-6.54-26.82t6.54-26.72a46.4,46.4,0,0,1,18.1-18A52.82,52.82,0,0,1,2129,685a48.25,48.25,0,0,1,19.9,4.07,38.79,38.79,0,0,1,15.16,12V645.73Zm-34.49,121.38a31.28,31.28,0,0,0,12.13-12.51,41.32,41.32,0,0,0,0-37,30.68,30.68,0,0,0-12.13-12.42,36.54,36.54,0,0,0-34.58,0,31.45,31.45,0,0,0-12.13,12.42,40.58,40.58,0,0,0,0,37,32.09,32.09,0,0,0,12.13,12.51,35.81,35.81,0,0,0,34.58,0Z"/>
        <path class="cls-1" d="M2310.38,685.91V786.34h-17.24V771.18a36.59,36.59,0,0,1-14.5,12,45.12,45.12,0,0,1-19.61,4.27q-20.1,0-31.65-11.09t-11.56-32.69V685.91H2234v55.71q0,14.6,7,22.07t20.09,7.49q14.4,0,22.74-8.72t8.34-24.63V685.91Z"/>
        <path class="cls-1" d="M2361.45,780.84a48.54,48.54,0,0,1-18.86-18.28,54.64,54.64,0,0,1,0-52.87,47.84,47.84,0,0,1,18.86-18.19,56.4,56.4,0,0,1,27.38-6.54,52.6,52.6,0,0,1,24.35,5.49,39.18,39.18,0,0,1,16.58,15.92l-13.83,8.91a31,31,0,0,0-11.75-10.8,33.52,33.52,0,0,0-15.54-3.6,36,36,0,0,0-17.72,4.35,31,31,0,0,0-12.31,12.42,37.54,37.54,0,0,0-4.46,18.47,37.94,37.94,0,0,0,4.46,18.67,31,31,0,0,0,12.31,12.41,35.88,35.88,0,0,0,17.72,4.36,33.52,33.52,0,0,0,15.54-3.6,31,31,0,0,0,11.75-10.8l13.83,8.71a39.77,39.77,0,0,1-16.58,16,51.9,51.9,0,0,1-24.35,5.59A55.68,55.68,0,0,1,2361.45,780.84Z"/>
        <path class="cls-1" d="M2511.06,780.47a27.25,27.25,0,0,1-9.86,5.21,41.19,41.19,0,0,1-12.13,1.8q-15.17,0-23.49-8.15T2457.24,756V700.88h-17.06v-15h17.06v-22h18.19v22h28.8v15h-28.8v54.38c0,5.44,1.36,9.6,4.07,12.51s6.6,4.36,11.66,4.36a21.91,21.91,0,0,0,14.21-4.74Z"/>
        <path class="cls-1" d="M2538.15,784.16q-11.37-3.31-17.81-8.43l7.58-14.4a54.45,54.45,0,0,0,16.11,7.58,66.38,66.38,0,0,0,19.14,2.84q23.86,0,23.87-13.65a8.83,8.83,0,0,0-3.22-7.2,20.5,20.5,0,0,0-8.05-3.88q-4.84-1.23-13.74-2.75a132.83,132.83,0,0,1-19.8-4.36,30.52,30.52,0,0,1-13.18-8.34q-5.49-5.87-5.49-16.48,0-13.65,11.37-21.89t30.51-8.24a84.25,84.25,0,0,1,20.09,2.46,54.16,54.16,0,0,1,16.48,6.63l-7.77,14.41q-12.31-8-29-8-11.57,0-17.62,3.79t-6.07,10a9.59,9.59,0,0,0,3.41,7.77,21.64,21.64,0,0,0,8.44,4.17q5,1.32,14.11,3a155.29,155.29,0,0,1,19.62,4.45,29.32,29.32,0,0,1,12.79,8.06q5.3,5.69,5.3,15.92,0,13.63-11.65,21.69t-31.74,8.06A84.17,84.17,0,0,1,2538.15,784.16Z"/>
        <path class="cls-1" d="M2681.6,645.73h16.86V823.1H2681.6Z"/>
        <path class="cls-1" d="M2799,783.21q-13.92-4.63-21.88-12l7-14.78a57.88,57.88,0,0,0,19.42,11.08,71.2,71.2,0,0,0,24.35,4.27q16.49,0,24.64-5.59t8.15-14.88a14.64,14.64,0,0,0-4.46-11.08,29.6,29.6,0,0,0-11-6.54q-6.54-2.28-18.47-5.12a190.27,190.27,0,0,1-24.17-7.2,39.82,39.82,0,0,1-15.72-11.08q-6.54-7.49-6.54-20.19a34.15,34.15,0,0,1,5.59-19.14q5.58-8.52,17-13.64t28.23-5.12a89.38,89.38,0,0,1,23.12,3,61.46,61.46,0,0,1,19.52,8.71l-6.25,15.16a68.79,68.79,0,0,0-17.82-8.05,66.48,66.48,0,0,0-18.57-2.75q-16.09,0-24.16,5.88t-8,15.16a14.5,14.5,0,0,0,4.55,11.08,31.45,31.45,0,0,0,11.27,6.63,173.7,173.7,0,0,0,18.29,5,185.64,185.64,0,0,1,24.07,7.2,40.5,40.5,0,0,1,15.63,11q6.54,7.38,6.54,19.9a33.88,33.88,0,0,1-5.69,19q-5.68,8.63-17.24,13.64t-28.43,5A90.68,90.68,0,0,1,2799,783.21Z"/>
        <path class="cls-1" d="M2994.65,742.19h-81.48a31.48,31.48,0,0,0,11.65,21.31q9.94,8.07,24.73,8.06,18,0,29-12.13l10.05,11.75a44,44,0,0,1-17,12.13,59,59,0,0,1-22.64,4.17q-15.92,0-28.23-6.54a46.53,46.53,0,0,1-19.05-18.29,52.35,52.35,0,0,1-6.73-26.53,53.27,53.27,0,0,1,6.54-26.34,46.8,46.8,0,0,1,18-18.28,51.3,51.3,0,0,1,25.87-6.54,50.25,50.25,0,0,1,25.68,6.54,45.88,45.88,0,0,1,17.62,18.28q6.34,11.76,6.35,26.91A53.09,53.09,0,0,1,2994.65,742.19Zm-71.16-33.92q-8.8,8-10.32,20.84h64.42a32.32,32.32,0,0,0-10.32-20.75q-8.82-8.05-21.89-8.05T2923.49,708.27Z"/>
        <path class="cls-1" d="M3036.62,780.84a48.58,48.58,0,0,1-18.85-18.28,54.64,54.64,0,0,1,0-52.87,47.87,47.87,0,0,1,18.85-18.19A56.42,56.42,0,0,1,3064,685a52.63,52.63,0,0,1,24.35,5.49,39.24,39.24,0,0,1,16.58,15.92l-13.84,8.91a30.85,30.85,0,0,0-11.74-10.8,33.55,33.55,0,0,0-15.54-3.6,36,36,0,0,0-17.72,4.35,31.07,31.07,0,0,0-12.32,12.42,37.53,37.53,0,0,0-4.45,18.47,37.94,37.94,0,0,0,4.45,18.67,31,31,0,0,0,12.32,12.41,35.88,35.88,0,0,0,17.72,4.36,33.55,33.55,0,0,0,15.54-3.6,30.85,30.85,0,0,0,11.74-10.8l13.84,8.71a39.83,39.83,0,0,1-16.58,16,51.93,51.93,0,0,1-24.35,5.59A55.69,55.69,0,0,1,3036.62,780.84Z"/>
        <path class="cls-1" d="M3222.05,685.91V786.34H3204.8V771.18a36.49,36.49,0,0,1-14.49,12,45.14,45.14,0,0,1-19.62,4.27q-20.08,0-31.64-11.09t-11.56-32.69V685.91h18.19v55.71q0,14.6,7,22.07t20.09,7.49q14.4,0,22.74-8.72t8.34-24.63V685.91Z"/>
        <path class="cls-1" d="M3288.18,689.5q9.29-4.54,22.55-4.54v17.62a36.94,36.94,0,0,0-4.17-.19q-14.78,0-23.21,8.81t-8.43,25.11v50h-18.2V685.91h17.44v16.86A31.1,31.1,0,0,1,3288.18,689.5Z"/>
        <path class="cls-1" d="M3422.54,742.19h-81.49a31.49,31.49,0,0,0,11.66,21.31q9.95,8.07,24.73,8.06,18,0,29-12.13l10,11.75a44,44,0,0,1-17,12.13,59,59,0,0,1-22.64,4.17q-15.93,0-28.24-6.54a46.57,46.57,0,0,1-19-18.29,52.35,52.35,0,0,1-6.73-26.53,53.27,53.27,0,0,1,6.54-26.34,46.74,46.74,0,0,1,18-18.28,51.25,51.25,0,0,1,25.87-6.54,50.19,50.19,0,0,1,25.67,6.54,45.9,45.9,0,0,1,17.63,18.28q6.34,11.76,6.35,26.91A53.09,53.09,0,0,1,3422.54,742.19Zm-71.16-33.92q-8.82,8-10.33,20.84h64.43a32.28,32.28,0,0,0-10.33-20.75q-8.8-8.05-21.88-8.05T3351.38,708.27Z"/>
        <path class="cls-1" d="M3594,666q14.79,12.32,14.78,33.92T3594,733.85q-14.78,12.31-40.55,12.32H3520.7v40.17h-18.95V653.69h51.73Q3579.25,653.69,3594,666Zm-13.64,56q9.46-7.66,9.47-22.07t-9.47-22.08q-9.48-7.68-27.48-7.67H3520.7v59.5h32.21Q3570.91,729.68,3580.39,722Z"/>
        <path class="cls-1" d="M3701.57,695.19q11.08,10.23,11.09,30.51v60.64h-17.25V773.08a28.74,28.74,0,0,1-13,10.7q-8.43,3.71-20,3.7-16.87,0-27-8.15a26.13,26.13,0,0,1-10.14-21.41q0-13.27,9.66-21.32t30.7-8.06h28.8v-3.6q0-11.75-6.82-18t-20.08-6.25a53.43,53.43,0,0,0-17.44,2.93,44.83,44.83,0,0,0-14.4,7.87l-7.58-13.65a55.16,55.16,0,0,1,18.57-9.57,77.71,77.71,0,0,1,22.93-3.31Q3690.49,685,3701.57,695.19Zm-18.1,73.62a26.47,26.47,0,0,0,11-13.17v-14h-28q-23.13,0-23.12,15.54a14.08,14.08,0,0,0,5.87,11.94q5.88,4.35,16.3,4.35A33.73,33.73,0,0,0,3683.47,768.81Z"/>
        <path class="cls-1" d="M3833.37,685.91l-48.7,110.47q-6.45,15.36-15.07,21.61t-20.75,6.25a43.83,43.83,0,0,1-14.31-2.37,29.26,29.26,0,0,1-11.46-6.92l7.77-13.64a25.32,25.32,0,0,0,18,7.39,17.43,17.43,0,0,0,11.09-3.5q4.44-3.51,8-12l3.22-7-44.34-100.24h19l35.06,80.34,34.67-80.34Z"/>
        <path class="cls-1" d="M4006.1,696q11.08,11,11.08,32.59v57.8H3999V730.63q0-14.6-6.73-22T3973,701.25q-13.84,0-22,8.63t-8.15,24.73v51.73h-18.19V730.63q0-14.6-6.73-22t-19.24-7.39q-13.83,0-22,8.63t-8.15,24.73v51.73h-18.19V685.91h17.44v15a35.25,35.25,0,0,1,14.4-11.85,48.27,48.27,0,0,1,20.27-4.07,44.47,44.47,0,0,1,20.85,4.74,32.83,32.83,0,0,1,14,13.83,38.52,38.52,0,0,1,15.82-13.65,51.64,51.64,0,0,1,22.84-4.92Q3995,685,4006.1,696Z"/>
        <path class="cls-1" d="M4141.68,742.19h-81.49a31.53,31.53,0,0,0,11.66,21.31q9.95,8.07,24.73,8.06,18,0,29-12.13l10.05,11.75a44,44,0,0,1-17,12.13,59,59,0,0,1-22.64,4.17q-15.91,0-28.24-6.54a46.57,46.57,0,0,1-19-18.29,52.35,52.35,0,0,1-6.73-26.53,53.27,53.27,0,0,1,6.54-26.34,46.8,46.8,0,0,1,18-18.28,51.28,51.28,0,0,1,25.87-6.54,50.25,50.25,0,0,1,25.68,6.54,45.88,45.88,0,0,1,17.62,18.28q6.34,11.76,6.35,26.91A53.09,53.09,0,0,1,4141.68,742.19Zm-71.16-33.92q-8.8,8-10.33,20.84h64.43a32.32,32.32,0,0,0-10.32-20.75q-8.82-8.05-21.89-8.05T4070.52,708.27Z"/>
        <path class="cls-1" d="M4251.3,696q11.28,11.09,11.28,32.5v57.8h-18.19V730.63q0-14.6-7-22t-20.09-7.39q-14.78,0-23.31,8.63t-8.53,24.73v51.73h-18.19V685.91h17.44v15.15a35.4,35.4,0,0,1,14.87-11.93,52,52,0,0,1,21.32-4.17Q4240,685,4251.3,696Z"/>
        <path class="cls-1" d="M4352.78,780.47a27.21,27.21,0,0,1-9.85,5.21,41.19,41.19,0,0,1-12.13,1.8q-15.17,0-23.5-8.15T4299,756V700.88h-17.05v-15H4299v-22h18.2v22H4346v15h-28.8v54.38c0,5.44,1.35,9.6,4.07,12.51s6.6,4.36,11.65,4.36a21.94,21.94,0,0,0,14.22-4.74Z"/>
        <path class="cls-1" d="M4379.88,784.16q-11.37-3.31-17.82-8.43l7.58-14.4a54.57,54.57,0,0,0,16.11,7.58,66.48,66.48,0,0,0,19.14,2.84q23.88,0,23.88-13.65a8.86,8.86,0,0,0-3.22-7.2,20.55,20.55,0,0,0-8.06-3.88q-4.83-1.23-13.74-2.75a133.41,133.41,0,0,1-19.8-4.36,30.43,30.43,0,0,1-13.17-8.34q-5.49-5.87-5.49-16.48,0-13.65,11.37-21.89t30.51-8.24a84.17,84.17,0,0,1,20.08,2.46,54.22,54.22,0,0,1,16.49,6.63L4436,708.46q-12.31-8-29-8-11.56,0-17.63,3.79t-6.06,10a9.59,9.59,0,0,0,3.41,7.77,21.53,21.53,0,0,0,8.43,4.17q5,1.32,14.12,3a155.08,155.08,0,0,1,19.61,4.45,29.27,29.27,0,0,1,12.79,8.06q5.31,5.69,5.31,15.92,0,13.63-11.65,21.69t-31.74,8.06A84.17,84.17,0,0,1,4379.88,784.16Z"/>
      </g>
      <line class="cls-2" x1="923" y1="540.5" x2="4487" y2="527"/>
    </g>
  </g>
  <g id="Layer_3" data-name="Layer 3">
    <g>
      <path class="cls-3" d="M496.61,798.94S257.4,710.86,257.4,478.56V280.8c118,0,239.21-78.59,239.21-78.59Z"/>
      <path class="cls-4" d="M496.17,798.82s238.35-88.09,238.35-320.39V280.68c-118,0-238.35-78.59-238.35-78.59Z"/>
      <path class="cls-5" d="M496.18,786.6S267.87,702.22,267.87,479.7V290.27c113.05,0,228.31-75.28,228.31-75.28s113.61,75.28,228.31,75.28c0,0,.83,31.43,0,189.43C723.67,702.22,496.18,786.6,496.18,786.6Z"/>
      <path class="cls-6" d="M496.17,798.84S257.83,710.76,257.83,478.46V280.7c118,0,238.34-78.58,238.34-78.58s118.6,78.58,238.35,78.58c0,0,.86,32.82,0,197.76C733.66,710.76,496.17,798.84,496.17,798.84Z"/>
      <path class="cls-7" d="M613.64,391.86,574.13,589.41H519.38l-56.72-92-18.34,92H379.41l39.51-197.55h54.75l56.72,92,18.34-92Z"/>
    </g>
  </g>
</svg>
